<svg width="20" height="20" viewBox="0 0 20 20" fill="none" xmlns="http://www.w3.org/2000/svg">
<path d="M8.44002 1.308C8.15202 1.336 7.43202 1.484 7.10002 1.58C4.46002 2.348 2.34402 4.456 1.58402 7.088C1.33202 7.964 1.30002 8.216 1.30402 9.38C1.30402 10.44 1.30802 10.472 1.42802 11.02C1.92002 13.216 3.14002 14.98 5.00002 16.184C5.69602 16.632 6.77602 17.108 6.99202 17.056C7.16002 17.012 7.31602 16.888 7.40002 16.72C7.46802 16.584 7.48002 16.48 7.48002 15.936C7.48002 15.356 7.47602 15.312 7.41202 15.34C7.37202 15.356 7.12402 15.38 6.86002 15.388C6.26402 15.416 5.87202 15.344 5.46402 15.132C5.13202 14.96 4.65202 14.504 4.54402 14.26C4.27202 13.648 3.98802 13.22 3.73202 13.04C3.26002 12.716 3.30002 12.488 3.81602 12.532C4.26802 12.572 4.72802 12.86 5.01202 13.288C5.34002 13.78 5.73602 14.04 6.32402 14.144C6.66402 14.204 6.97602 14.196 7.30402 14.112L7.47202 14.072L7.50002 13.728C7.51602 13.536 7.56402 13.288 7.60402 13.18C7.64402 13.068 7.68002 12.976 7.68002 12.976C7.68002 12.972 7.56002 12.948 7.41202 12.92C6.80002 12.816 5.89202 12.456 5.39602 12.12C5.08002 11.904 4.64402 11.492 4.43202 11.204C3.47202 9.92 3.52402 7.86 4.54402 6.52C4.63602 6.396 4.74002 6.272 4.77602 6.244C4.83202 6.196 4.82802 6.176 4.76002 6.036C4.46802 5.472 4.50802 4.428 4.84002 3.908L4.94802 3.736L5.25202 3.764C5.80402 3.816 6.30802 4.008 6.81202 4.356C6.97202 4.468 7.16002 4.62 7.23602 4.696L7.36802 4.832L7.53602 4.772C8.12002 4.56 9.43202 4.464 10.26 4.576C10.524 4.608 10.88 4.676 11.052 4.72L11.364 4.8L11.604 4.6C12.284 4.032 13.136 3.704 13.788 3.756C13.864 3.764 14.076 4.232 14.14 4.54C14.172 4.692 14.2 4.932 14.2 5.068C14.2 5.36 14.108 5.872 14.028 6.028C13.972 6.132 13.976 6.144 14.164 6.38C14.412 6.68 14.68 7.2 14.812 7.62C15.012 8.268 15.052 9.264 14.904 9.932C14.668 10.988 13.88 11.916 12.76 12.452C12.4 12.624 11.724 12.848 11.356 12.916L11.088 12.968L11.172 13.192C11.248 13.404 11.256 13.528 11.268 14.98C11.276 15.836 11.292 16.58 11.304 16.628C11.332 16.776 11.556 16.996 11.72 17.04C11.852 17.076 11.916 17.064 12.208 16.956C12.964 16.68 13.732 16.244 14.392 15.724C16.116 14.36 17.168 12.48 17.44 10.272C17.512 9.704 17.472 8.5 17.364 7.92C16.952 5.716 15.684 3.808 13.828 2.588C12.836 1.932 11.524 1.452 10.38 1.32C10.044 1.284 8.75602 1.276 8.44002 1.308Z" fill="#B385EE"/>
</svg>
