<svg width="20" height="20" viewBox="0 0 20 20" fill="none" xmlns="http://www.w3.org/2000/svg">
<path d="M4.75705 5.17198C3.87569 6.00001 4.45197 7.51593 5.64971 7.51593C6.32767 7.51593 7.00564 6.85351 7.00564 6.17835C7.00564 5.78345 6.65536 5.13376 6.37287 4.9809C5.86439 4.72612 5.14123 4.80255 4.75705 5.17198Z" fill="#B385EE"/>
<path d="M12.3729 8.59872C12.3164 8.62419 12.113 8.67515 11.9435 8.71336C11.7627 8.76432 11.4011 9.03184 11.1186 9.32483L10.6214 9.84712V9.31209V8.7898H9.43501H8.24857V12.8025V16.8153H9.43501H10.6214V14.2166C10.6214 11.758 10.6327 11.6051 10.87 11.2739C11.4011 10.5095 12.2712 10.4331 12.8474 11.1083L13.1638 11.4777L13.1977 14.1529L13.2316 16.8153H14.4294H15.6158L15.5706 13.9236C15.5367 11.1974 15.5141 10.9809 15.2655 10.3567C14.9039 9.45222 14.3051 8.85349 13.5706 8.67515C12.9943 8.53502 12.5988 8.50954 12.3729 8.59872Z" fill="#B385EE"/>
<path d="M4.51978 12.8025V16.8153H5.64972H6.77966V12.8025V8.7898H5.64972H4.51978V12.8025Z" fill="#B385EE"/>
</svg>
