<svg width="518" height="358" viewBox="0 0 518 358" fill="none" xmlns="http://www.w3.org/2000/svg">
<path d="M38.1333 90.8C23.6 92.9333 8.53334 102.267 3.33334 112.133L1.46667 115.6L9.20001 116.4C19.0667 117.467 32.9333 122 50 129.867C67.2 137.733 78.2667 140.533 88.6667 139.6C99.0667 138.8 110.4 133.333 117.6 125.6L122.933 119.733L116.667 115.333C109.333 110 93.2 101.467 81.8667 96.9333C67.0667 90.9333 51.4667 88.8 38.1333 90.8ZM55.6 102L60.5333 104.133L57.0667 107.6C54.5333 110.133 52.1333 111.067 48.4 111.067C36.8 111.067 34.1333 107.067 42.6667 102.533C48.2667 99.4667 49.3333 99.4667 55.6 102Z" fill="#4D8C8C"/>
<path d="M44.1333 105.2C42.6666 106.133 42.9333 106.533 45.0666 107.2C48.2666 108.267 54.6666 106.933 54.6666 105.2C54.6666 103.6 46.5333 103.733 44.1333 105.2Z" fill="#4D8C8C"/>
<path d="M282 96.9333C264.533 98.2667 245.733 100.267 243.733 100.8C241.6 101.467 241.733 102.133 244.933 107.067C246.933 110.133 249.467 116 250.8 120L253.067 127.333L260.133 128.4C278.667 131.2 295.6 135.067 302.933 138L310.933 141.2L310 136.4C307.2 121.2 293.733 95.6 288.933 96.2667C288 96.4 284.933 96.6667 282 96.9333Z" fill="#4D8C8C"/>
<path d="M296 96.8C296 97.2 297.2 99.3333 298.667 101.333C303.6 108.267 310.667 124.667 313.067 134.533C315.2 143.733 315.6 144.4 320.667 146.933C323.6 148.533 329.333 152 333.467 154.8C343.2 161.333 362.933 169.733 378.667 174C385.6 175.867 392 177.333 392.933 177.333C397.6 177.333 377.2 132 364.667 114.4C357.867 104.933 356.8 103.867 350.267 102C335.333 97.7333 296 93.8667 296 96.8Z" fill="#4D8C8C"/>
<path d="M218.4 104.8C209.067 106.533 195.6 109.867 188.4 112.133C175.2 116.4 161.867 122.267 163.067 123.467C166.267 126.667 249.333 129.067 249.333 126C249.2 121.2 238.533 101.2 236.267 101.467C235.733 101.467 227.733 102.933 218.4 104.8Z" fill="#4D8C8C"/>
<path d="M364 107.2C364 107.467 366.8 111.733 370.267 116.8C377.733 127.867 390.533 154.267 395.2 168C397.333 174.4 399.333 178.133 401.067 178.8C410.133 182.133 443.6 183.6 460.667 181.333C477.733 179.067 484.267 177.333 482.667 175.333C477.2 168.8 420.533 134.267 388.133 117.733C368.133 107.6 364 105.733 364 107.2Z" fill="#4D8C8C"/>
<path d="M10.6667 126.533C26.5334 152.133 56.8 170.267 95.2 176.8C111.867 179.733 114.8 181.2 121.467 190.267C140.8 216.4 174.933 239.067 210.667 249.467C226.267 254 226.933 253.333 217.067 242.933C211.6 237.067 206.4 229.733 202.667 222.4L196.933 211.067L203.067 199.467C210.267 186 223.067 169.067 233.6 159.067L240.933 152.267L210.133 151.733C170.267 150.933 170.8 151.067 138.667 130.8C133.867 127.733 128.933 124.533 127.733 123.733C125.867 122.4 124.533 123.067 119.067 128.533C102 146 79.6 147.467 49.0667 133.333C30.9334 124.8 17.0667 120 11.0667 120H6.66669L10.6667 126.533Z" fill="#4D8C8C"/>
<path d="M152.533 128.933C147.733 132.267 147.733 132.533 150.133 134.267C155.6 138.4 164.133 142.933 164.933 142.133C165.867 141.333 167.333 128 166.533 128C166.267 128 164.133 127.467 161.733 126.8C158.267 125.733 156.8 126.133 152.533 128.933Z" fill="#4D8C8C"/>
<path d="M169.867 136.533C169.067 140.667 168.8 144.267 169.2 144.533C169.6 144.8 173.733 145.867 178.4 146.667C186.533 148.267 186.933 148.267 188.933 145.467C190 143.733 194.533 139.733 198.933 136.533L206.933 130.667H197.067C191.6 130.667 183.467 130.267 179.067 129.867L171.2 129.067L169.867 136.533Z" fill="#4D8C8C"/>
<path d="M208 134.8C200.267 138.933 191.467 146.667 192.8 147.867C193.2 148.267 210.133 148.667 230.4 148.667C271.467 148.667 276.133 149.333 293.333 158C302.667 162.667 313.333 172.133 316.8 178.8C317.867 180.933 318.933 182.667 319.067 182.667C319.333 182.667 326.933 185.733 336.133 189.467C354 196.667 384.933 205.333 405.333 208.667C423.867 211.733 452 212.667 465.2 210.8C476 209.2 494.8 203.333 503.733 198.8L508.133 196.533L504.4 193.067L500.667 189.467L489.067 194.133C473.6 200.267 462.133 202.667 446.533 202.667C413.6 202.667 381.467 190.8 339.333 162.8C329.067 156 316.133 148.133 310.533 145.2C291.6 135.733 265.067 130.667 234 130.667C215.733 130.667 215.2 130.8 208 134.8Z" fill="#4D8C8C"/>
<path d="M234.933 162.933C223.067 174.933 214.133 186.267 208.667 196.267L205.2 202.533L210.933 199.333C229.067 188.8 253.733 186.8 284 193.467L291.333 195.067L303.067 188.8L314.667 182.4L312.4 178.4C308.933 172.667 299.867 164.667 292.4 160.933C282.267 155.733 272.4 153.333 258.667 152.533L246 151.733L234.933 162.933Z" fill="#4D8C8C"/>
<path d="M364 173.867C364 174.267 369.2 177.333 375.733 180.533C389.867 187.6 412.267 195.333 424 197.2C435.333 199.067 458.8 199.067 468.8 197.2C477.067 195.733 496 188.4 496 186.8C496 186.267 494.533 184.4 492.667 182.667L489.467 179.6L478.4 182C461.733 185.6 425.733 186.267 407.2 183.333C393.867 181.2 372 176.267 366.4 174C365.067 173.467 364 173.467 364 173.867Z" fill="#4D8C8C"/>
<path d="M306 190.933L295.333 196.4L303.733 200.133C318.267 206.667 330.8 215.867 348 232.667C357.2 241.6 366 249.6 367.6 250.4C373.333 253.467 399.067 245.733 418.533 235.067C427.067 230.533 443.333 219.333 444.667 217.467C444.933 216.8 437.6 215.733 428.267 214.8C395.733 211.867 356.133 202 326.133 189.2C321.2 187.067 316.933 185.333 316.8 185.333C316.8 185.467 311.867 187.867 306 190.933Z" fill="#4D8C8C"/>
<path d="M237.867 193.333C229.867 194.533 222.533 196.8 215.733 200.133C211.2 202.533 210.933 202.933 212 206.8C215.067 217.467 226.267 230.667 240 240C244.533 243.067 255.2 249.467 263.733 254.267C272.267 259.067 283.867 266 289.333 269.867C309.467 283.867 320.133 288.4 336.8 290C358.933 292.133 393.333 281.467 409.733 267.6L414.8 263.2L405.733 263.733C391.467 264.533 374 259.6 364.267 251.867C362.533 250.533 354.133 242.8 345.6 234.667C336.933 226.667 326.4 217.467 322 214.533C297.867 197.867 264.267 189.467 237.867 193.333Z" fill="#4D8C8C"/>
<path d="M114.933 201.467C106.4 208.4 98 221.2 94.4 232.267C91.0667 243.2 90.8 261.733 94 272.8C101.867 300.133 126 322.133 155.333 328.667C166.533 331.2 186.667 331.067 191.333 328.4C193.333 327.2 191.2 327.067 181.333 327.6C145.067 329.733 114 307.067 105.867 272.4C101.067 252.267 107.867 227.333 122.133 212C125.333 208.533 128 205.2 128 204.533C127.867 203.867 126.533 201.6 124.8 199.6L121.867 195.867L114.933 201.467Z" fill="#4D8C8C"/>
<path d="M204.267 207.467C200.133 210.267 200.533 212.667 207.333 224C215.6 237.867 226.133 247.867 243.467 258.667C251.733 263.733 264.667 272.533 272.267 278.4C295.333 295.867 311.067 300.8 339.733 299.6C366.4 298.533 392.8 290 406.133 278.267C413.333 272 417.733 265.2 410.933 270.933C403.733 276.933 393.2 282.267 378 287.467C365.067 291.733 361.333 292.533 347.2 293.067C323.2 294 316.533 291.6 285.867 271.6C276.4 265.467 263.867 257.867 258 254.8C232.933 241.467 218.267 228.533 210.933 213.333C207.333 205.6 207.067 205.467 204.267 207.467Z" fill="#4D8C8C"/>
<path d="M124.667 214.8C121.2 218.4 116.267 226.133 113.6 231.733C108.8 241.733 108.667 242.4 108.667 258C108.667 273.733 108.8 274.133 113.6 284.4C127.867 314.267 158.533 329.6 190.933 323.2L194.667 322.4L188.267 317.467C173.467 305.733 160.4 286.8 156.133 271.067C153.467 261.067 152.133 246.133 153.333 236.667L154.4 227.333L150.133 224C147.867 222.133 142.933 217.867 139.2 214.267C135.467 210.8 132.133 208 131.733 208C131.333 208 128.133 211.067 124.667 214.8Z" fill="#4D8C8C"/>
</svg>
